<svg width="331" height="131" viewBox="0 0 331 131" fill="none" xmlns="http://www.w3.org/2000/svg">
<g opacity="0.4">
<g clip-path="url(#clip0_1_4789)">
<path d="M1.75885 177.678C-4.42892 138.783 2.28923 62.8505 78.6639 70.2758C174.132 79.5574 200.651 -3.97771 296.12 47.7343C391.588 99.4463 463.189 -9.28164 402.195 -90.1646" stroke="white" stroke-width="0.5" stroke-linecap="round" stroke-linejoin="round"/>
<path d="M7.06256 193.589C0.874794 154.695 7.59294 78.7618 83.9676 86.1872C179.436 95.4688 205.955 11.9337 301.423 63.6457C396.892 115.358 468.493 6.62975 407.499 -74.2532" stroke="white" stroke-width="0.5" stroke-linecap="round" stroke-linejoin="round"/>
<path d="M12.3663 209.5C6.17851 170.606 12.8967 94.6732 89.2713 102.099C184.74 111.38 211.259 27.8451 306.727 79.5571C402.195 131.269 473.797 22.5411 412.803 -58.3418" stroke="white" stroke-width="0.5" stroke-linecap="round" stroke-linejoin="round"/>
<path d="M17.6705 225.412C11.4827 186.517 18.2008 110.585 94.5755 118.01C190.044 127.292 216.563 43.7565 312.031 95.4685C407.499 147.181 479.101 38.4525 418.107 -42.4304" stroke="white" stroke-width="0.5" stroke-linecap="round" stroke-linejoin="round"/>
<path d="M22.9742 241.323C16.7864 202.429 23.5046 126.496 99.8792 133.921C195.348 143.203 221.867 59.6679 317.335 111.38C412.803 163.092 484.404 54.3639 423.411 -26.519" stroke="white" stroke-width="0.5" stroke-linecap="round" stroke-linejoin="round"/>
<path d="M28.2779 257.235C22.0901 218.34 28.8083 142.407 105.183 149.833C200.651 159.114 227.17 75.5792 322.639 127.291C418.107 179.003 489.708 70.2753 428.715 -10.6076" stroke="white" stroke-width="0.5" stroke-linecap="round" stroke-linejoin="round"/>
<path d="M33.5816 273.146C27.3938 234.252 34.112 158.319 110.487 165.744C205.955 175.026 232.474 91.4906 327.942 143.203C423.411 194.915 495.012 86.1867 434.018 5.3038" stroke="white" stroke-width="0.5" stroke-linecap="round" stroke-linejoin="round"/>
<path d="M38.8853 289.057C32.6975 250.163 39.4157 174.23 115.79 181.656C211.259 190.937 237.778 107.402 333.246 159.114C428.714 210.826 500.316 102.098 439.322 21.2152" stroke="white" stroke-width="0.5" stroke-linecap="round" stroke-linejoin="round"/>
<path d="M44.189 304.969C38.0013 266.074 44.7194 190.142 121.094 197.567C216.562 206.849 243.081 123.313 338.55 175.025C434.018 226.737 505.619 118.009 444.626 37.1266" stroke="white" stroke-width="0.5" stroke-linecap="round" stroke-linejoin="round"/>
<path d="M49.4932 320.88C43.3055 281.986 50.0236 206.053 126.398 213.478C221.867 222.76 248.386 139.225 343.854 190.937C439.322 242.649 510.923 133.921 449.93 53.038" stroke="white" stroke-width="0.5" stroke-linecap="round" stroke-linejoin="round"/>
<path d="M54.7969 336.792C48.6092 297.897 55.3273 221.964 131.702 229.39C227.17 238.671 253.689 155.136 349.158 206.848C444.626 258.56 516.227 149.832 455.234 68.9494" stroke="white" stroke-width="0.5" stroke-linecap="round" stroke-linejoin="round"/>
<path d="M60.1006 352.703C53.9129 313.808 60.631 237.876 137.006 245.301C232.474 254.583 258.993 171.048 354.461 222.76C449.93 274.472 521.531 165.744 460.537 84.8608" stroke="white" stroke-width="0.5" stroke-linecap="round" stroke-linejoin="round"/>
<path d="M65.4044 368.614C59.2166 329.72 65.9347 253.787 142.309 261.212C237.778 270.494 264.297 186.959 359.765 238.671C455.233 290.383 526.835 181.655 465.841 100.772" stroke="white" stroke-width="0.5" stroke-linecap="round" stroke-linejoin="round"/>
<path d="M70.7081 384.526C64.5203 345.631 71.2384 269.699 147.613 277.124C243.081 286.405 269.6 202.87 365.069 254.582C460.537 306.294 532.138 197.566 471.145 116.684" stroke="white" stroke-width="0.5" stroke-linecap="round" stroke-linejoin="round"/>
</g>
</g>
<defs>
<clipPath id="clip0_1_4789">
<path d="M0 0H332V103C332 118.464 319.464 131 304 131H0V0Z" fill="white"/>
</clipPath>
</defs>
</svg>
